<svg id="Capa_1" data-name="Capa 1" xmlns="http://www.w3.org/2000/svg" viewBox="0 0 1080 1080"><defs><style>.cls-1{fill:#272b2b}.cls-2{fill:#030302}.cls-3{fill:#fdcb98}.cls-4{fill:#191919}.cls-5{fill:#090d0d}.cls-6{fill:#fbc997}.cls-7{fill:#dd8e6a}.cls-8{fill:#636767}.cls-9{fill:#782d22}.cls-10{fill:#050403}.cls-11{fill:#5b0303}.cls-12{fill:#fbfbfb}.cls-14{fill:#5d361f}</style></defs><path class="cls-1" d="M227.35 497c-1.9-1.42-15.46-93.16-17.35-94.59-1.17-7.53 1.73-26.38 1.14-34-1.43-18.18-1.29-36.38-.8-54.55.55-20.34 4-40.18 14.49-58.13 2.63-4.54 5.1-9.63 9-12.9 7.72-6.55 9.46-15.12 11.21-24.22 5.54-28.92 17.57-54.7 37.2-77a177.25 177.25 0 0 1 56.69-43.27c11.64-5.6 22.89-12 34.85-16.94 1.7-.07 3.42 0 5.1-.22 19.13-2.35 37.53-7.83 55.87-13.45 36.56-11.2 74-16.93 112.13-19 1.87-.1 3.75-.07 5.62-.08h5.37c-19.3 2.82-38.19 6.15-56.21 16.11a11.5 11.5 0 0 0 2.48.21c28.67-6.51 57.89-7.33 87.08-8 20.41-.44 40.79 1.11 61.18 1.91a111.33 111.33 0 0 1 21.56 10.91c12.3 7.72 24.27 15.95 33.94 26.95 2.4 2.73 4.81 5.67 5.81 9.36-5.68-2.22-11.07-5.14-17-6.67-7.29-1.87-14.57-3.46-23.15-2.33 3.6 2.43 6 4.78 9.3 5.83a16.85 16.85 0 0 0 4.39 4.15c7.58 5.94 15 12 20.29 20.3a10.33 10.33 0 0 1-2.51-.28c-15.33-5.65-31.54-7.36-47.49-9.59a300.56 300.56 0 0 0-51.72-2.36c-1.43 0-3.23-.5-3.6 1.77-8.42-.92-16.81-2.27-25.25-2.7-28.12-1.43-53.56 7.57-77.82 20.77a26.46 26.46 0 0 0-3 1.94c-.94.69-1.81 1.49-2.7 2.24C541.56 122.91 590.86 126.84 640 129c-1.14-1.62-3.21-1.94-5.08-2.57-7.2-2.42-14.41-4.77-21.63-7.15a2.36 2.36 0 0 1 2.72-.87c16.89 4.15 34.14 6.92 50.49 13.12 8.07 2.53 16.24 4.79 24.2 7.64a111.82 111.82 0 0 1 47.93 32.52c4.71 5.48 9.41 11.17 11.85 18.22-6.92-2.75-13.7-6-20.79-8.15-16.75-5.17-34.09-4.12-51.32-4.29a166.34 166.34 0 0 0-45.66 6.29c-4 1.08-8.08 1.95-11.94 4.44 21.65-.06 42.82-3.26 64.24 0-17.12 5.47-24.35 10.12-32.85 21.07-.08.14-.15.28-.23.41l.21-.43c10-2.3 20-4.58 29.74-8 9.91-.75 19.7-3.19 29.73-2.18 14.09 1.42 26.84 6.22 37.82 15.34a105.71 105.71 0 0 0-10.69.14c-20.5 2.25-40 8.56-59.11 15.82-6.46 2.45-12.86 5.06-19.28 7.59-17.3 5.76-35.35 7.63-53.26 10.12-16.91 2.36-33.9 4.21-50.89 6.05-4.87.52-9.81.79-14.7 1-12.21.51-24.41 1.9-36.67 1.2-14.25-4.79-28.65-2.75-43-.83-1.55.21-3.49 1.83-4.45-.15-.72-1.49 1.44-2.43 2.41-3.52 5.35-6 12.56-9.68 18.54-14.89l3-1.17c5.39-2.83 10.87-5.5 16.13-8.57 1.9-1.11 5.82-.72 5.43-3.34-.35-2.43-4.09-2.7-6.48-3.15-16-3-31.93-2-47.88.37-12.39 1.85-24.52 4.91-36.7 7.72-19 4.37-37.56 10.09-55.27 18.35l-4.42.89c3.3-6.79 8.82-10.89 12.6-16.25 9.82-9.21 22.25-13.12 34.78-16.92a152.19 152.19 0 0 0-21.79.39 215.11 215.11 0 0 0-42.44 7.74 132.34 132.34 0 0 0-50.8 28.21c-15.72 13.79-24.08 31.25-25.12 52.16-1.05 17.82-2 35.64-3.22 53.45-.29 4.36 2.22 9.87 1.56 14.19-1.67 6.17 0 23.56-1.77 29.69-.87 3-17.55 84.31-20.74 84.7m214.46-311.87 1.13-.91a6.66 6.66 0 0 0 3.71-1.49c19.18-12.26 40-20.95 61.68-27.58 7.54-2.31 15.06-4.7 22.6-7.05a145.94 145.94 0 0 0-65.33 19.16c-8.22 4.69-16.78 9.09-22.94 16.68l-1 1.07-.45.57Zm8.14-42a2.08 2.08 0 0 0-2.12.93c-14.39 6.19-29.08 11.55-44.59 14-12.93 2.06-25.85 4.05-38.21 8.49-7.25 2.6-14.58 5.12-21.47 9.71 2.08.9 3.25-.1 4.5-.45 9-2.47 17.93-5.19 27-7.3 15.54-3.6 31.7-4.08 46.92-9.12 9.66-3.19 18.86-7.46 26-15.17a1.86 1.86 0 0 0 1.92-1.15 1.12 1.12 0 0 0 .41-.15c.06 0 .06-.19.08-.29Zm-154.51 51.11-.79 1 .53.33.3-1.27 1.06-1c3.5-2.52 5.72-6.27 8.78-9.18 22.59-21.46 50.27-30.82 80.66-33.95 8.24-.86 16.51-.82 25.59-1.11-5.3-2.52-10.22-2.23-14.84-2.53a160.23 160.23 0 0 0-28.54.55c-24.48 2.8-45.55 12.2-61.87 30.94-3.94 4.52-8.54 8.84-9.93 15.13Zm-56.23 73.66c-11.32 10.75-12.58 24.5-11.59 38.9a123.53 123.53 0 0 0 4.47-14.15c2.33-8.28 4.71-16.53 7.07-24.8l.49-.4c-.09 0-.23 0-.28.07a1.45 1.45 0 0 0-.16.38Zm250.61-22.53a200.05 200.05 0 0 1 40.67-14.3l33.57-7.67a37.31 37.31 0 0 0-12.48-1.41c-16.54 1.16-32.54 4.72-47.5 12-5.47 2.64-11.52 5.13-14.23 11.46a1.13 1.13 0 0 0-.38.12c-.07 0-.07.18-.1.28ZM630.59 73.91c-34.32-11.84-68.76-11.39-103.29-1.12a784.24 784.24 0 0 1 103.29 1.12ZM232.7 251.57c-12.46 10.44-18.76 34.78-14.44 55.32 3-10.55 5.73-20.47 8.5-30.4.93 5.66 1 11.17 4.32 16.07 2.66-13.46 1.06-27.01 1.62-40.99Zm409.91-121.69c0 .1 0 .26.09.3a1.67 1.67 0 0 0 .4.08c0-.17-.07-.34-.11-.51ZM301 186.31a1 1 0 0 0 .36.1c.05 0 .08-.18.12-.27a1 1 0 0 0-.36-.1s-.06.17-.12.27ZM524.56 73.68a1 1 0 0 0-.4-.11s-.09.18-.13.28a1.14 1.14 0 0 0 .4.11s.09-.18.13-.28ZM869.28 335.28c-.61-19.51-1.66-38.93-5.35-58.12-6.48-33.67-18.16-65.39-36.49-94.44-12.68-20.09-28.1-37.93-47.18-52.29-7.66-5.76-14-13.47-23.73-16.34-4.93-1.17-9.74-2.76-14.89-3.08-4.17-.25-5.23 1.64-4.5 5.13 2.24 10.76 6.05 20.79 13.32 29.35 8.39 9.9 17.45 19 28.36 26.15 2.16 1.4 2.4 2.55.39 4.2-6.17 5.09-6.28 12.52-7.21 19.51-.49 3.7 3.31 3.11 5.17 3.38 5.77.83 10.61 3.47 15.34 6.53a11.29 11.29 0 0 1 3.93 3.93c6.22 3.35 12.6 6.63 16.85 12.48 1.65 2.27 5.85 4.84 1.33 8.37 8.88 9.74 14.39 21.26 17.84 33.86a25.22 25.22 0 0 1 0 13.27c-3.35-4.83-4-9.76-5.92-14.12-6.76-15.34-16.13-28.61-29.6-38.78-2.68-2-3.31-3.45.65-4.35-5.26-4.57-12-4.28-18.26-5.52a25.17 25.17 0 0 0-4.52-.1c5 4.57 11.11 7.59 16.09 12.28 11.37 10.71 17.48 24 20.76 38.92a10.63 10.63 0 0 0 1.48 5.26 123.15 123.15 0 0 1 9.71 21.32c6.94 20.19 8.74 92.74 10.48 113.63 5.31 16.77 8.49 40.22 12.11 45.88 1.22 1.91 6.22 28 10.35 31.74l15.56-97.78c-3.26-7-2.49-12.37-2.13-17.78.78-10.86.39-21.63.06-32.49ZM771 153c6.23-6.43 17.42-3.27 20.28 5.11h.06l.4.23-.44-.19v-.06c-6.71-1.7-13-4.67-20.3-5.09Zm52.18 51.52a.53.53 0 0 1-.08-.25l-.09-.09a.17.17 0 0 1 0-.05 2 2 0 0 1-2.05-.92c-9-3.87-17.26-9.38-26.44-13a58.28 58.28 0 0 0-9.67-3c-3-.61-3-1.85-1.6-4.21 2.5-4.24 6.54-5.08 10.86-5.37a30.19 30.19 0 0 1 20 5.55c-5.39.15-10.76-1.35-17.38.23 7.18 4.13 13.2 8 18.48 12.87 2.2 2 5 3.56 5.89 6.75a2 2 0 0 1 1.9 1.07.74.74 0 0 0 0 .14l.35.35c-.02-.04-.16-.04-.2-.1Z"/><path class="cls-2" d="M706.65 980.53a722.06 722.06 0 0 0 51.76-53.37c22.48-26.25 43-42 63.09-70 11.7-16.28 19-34.92 23.83-54.35 3-12.2 5-24.66 7.2-37 .45-2.53 1.47-3 3.8-3.6 11.27-2.82 21.12-8.2 28.23-17.67 6.93-9.24 13.3-18.91 20.54-27.9 14.2-17.65 24.86-37.17 31-58.87A330.73 330.73 0 0 0 948 594.1c1.53-19 .4-37.46-5.08-55.8-7.56-25.28-33.47-47-65.38-33.19-3.15 1.36-2.4-.76-2.81-2.23-2.62-9.44-.9-18.79.57-28.13 5.31-33.71 11-67.37 13.2-101.46 2.3-36 1.21-71.94-6.66-107.14-14-62.61-42.83-116.5-95.12-156.21-18.88-14.33-38.11-27.23-62-31.16-4-.65-7.74-.8-11.17-3.92-38.9-35.31-86.77-48.86-137.27-55.69-17.77-2.39-35.7-1.89-53.6-1.14-22.47.95-44.73 3.44-66.62 8.84-52.5 13-99.94 37.9-145.7 65.31-44.71 26.79-73.1 67.23-83.84 118.91-1.83 8.84-4.89 16.44-11 23.37-7 8-11.73 17.79-15.57 27.83-9.64 25.14-10.06 51.47-9.68 77.84.21 15.31 1.1 30.61 2.41 45.89q2.55 29.46 6.84 58.69c2.69 18.45 6.07 36.78 9.61 55.08.59 3 .77 4.55-3.56 3.19-24.45-7.65-44.51 6-53.45 21.63-7.43 13-10.62 27.25-11.53 42.08-1.4 22.71 1.57 45 6.21 67.15 4.75 22.74 11.34 44.94 24.16 64.52 10.22 15.61 21.54 30.52 32.77 45.44 6.69 8.88 15.57 15.23 26.64 17.47 5.26 1.07 6.72 3.77 7.49 8.66 2.26 14.44 4.41 29 9.07 42.86 11.69 34.81 32.39 64.25 56.59 91.32 22.84 25.54 47.19 49.66 71.67 73.64l16.19 15.42c5.82 5.47 11.82 10.75 17.75 16.1l50.73 39c15.75 9.46 32.76 14.19 51.16 15.46 27.79 1.93 55.45 1.77 83.07-1.78 12.32-1.58 22.32-8.75 33.31-14.13M254.29 378c.89 24.39-8 46.53-15.76 68.91a121 121 0 0 0-6.88 39.83c0 1.64 1 4.26-1.85 4.47s-2.87-2.27-3.21-4.3c-2.65-15.46-5.67-30.88-7.87-46.41-1.72-12.2-3.72-24.38-4.49-36.7-.27-4.21-1.33-8.37-.9-12.64-1.17-7.53-1.6-15.13-2.19-22.72-1.43-18.18-1.29-36.38-.8-54.55.55-20.34 4-40.18 14.49-58.13 2.63-4.54 5.1-9.63 9-12.9 7.72-6.55 9.46-15.12 11.21-24.22 5.54-28.92 17.57-54.7 37.2-77a177.25 177.25 0 0 1 56.69-43.27c11.64-5.6 22.89-12 34.85-16.94a424.36 424.36 0 0 1 54.83-25.72c27.79-10.49 56.68-14.88 86.1-17.53 45.22-4.07 88.82 2.52 131.34 17.74 2.19.78 4.64 1.16 6.35 3a111.33 111.33 0 0 1 21.56 10.91c12.3 7.72 24.27 15.95 33.94 26.95 2.4 2.73 4.81 5.67 5.82 9.37 5.13 4.68 7.73 11 10.87 17 1 1.79 1.35 4.49 3.85 3.69s1.73-3.52 1.3-5.41c-1.35-5.93-2.92-11.81-4.48-17.7-1-3.86-.42-5.27 4.14-4.06 9 2.38 17 6.63 24.92 11.3 1.26.75 2.19 1.58 2.25 3.12 9.68 2.87 16.07 10.58 23.73 16.34 19.08 14.36 34.5 32.2 47.18 52.29 18.33 29.05 30 60.77 36.49 94.44 3.69 19.19 4.74 38.61 5.35 58.12.33 10.86.68 21.63 0 32.49-.36 5.41-1.13 10.79-1.3 16.21-1.49 12.92-2.78 25.86-4.51 38.75-2 15.06-4.42 30.07-6.69 45.1a46.32 46.32 0 0 1-2 8.71c-1.34-7.27-2.31-14.53-4.48-21.49-3.78-12.15-8.14-24.12-11.69-36.33a144.45 144.45 0 0 1-5.35-34c-.45-10.14-1.27-20.26-1.93-30.39-1.74-20.89-1.45-42.06-8.39-62.25a123.15 123.15 0 0 0-9.71-21.32 10.63 10.63 0 0 1-1.48-5.26c-5.1-2.42-6.64-7.85-9.78-11.87a107.42 107.42 0 0 0-37.77-30.93c-3.29-1.62-6.69-1.48-10-1.06-29.84 3.81-59 11.3-88.56 16.72-1.84.34-3.6 1.16-5.23-.44-17.3 5.76-35.35 7.63-53.26 10.12-16.91 2.36-33.9 4.21-50.89 6.05-4.87.52-9.81.79-14.7 1-12.21.51-24.41 1.9-36.67 1.2-4.36 2.45-9.31 1.25-13.89 1.7a230.26 230.26 0 0 0-70.52 18.35c-.23.1-.61-.15-1.52-.39 13.15-23.48 35.81-32 59.39-39.05l3-1.17c.25-3.25-1.6-3.94-4.43-4-8.48-.25-16.9.94-25.35 1.32-10.57.47-21 2.68-31.6 3.75a419.36 419.36 0 0 0-59.72 10.62c-1.31.33-2.55 1.19-3.67-.28l-4.42.89c3.3-6.79 8.82-10.89 12.6-16.25-.17-2.4-1.73-3.46-3.82-3-20.24 4.42-41.23 5.76-60.38 14.63-14.42 6.68-23.26 18.75-30.84 32-4.44 7.78-6.52 16.3-8.23 24.95-.28 1.39-.2 2.77-2.05 3-1.05 17.82-2 35.64-3.22 53.45m598.57 123.45c-.28.37-.51.67-.75 1a6.58 6.58 0 0 1-.31-1.35c0-.27.25-.56.38-.84Zm-13.6 11.51c-16.94-4.37-34.18-7.54-50.94-12.62l-19.5-3.09c-10.55-1.53-21-3.26-31.65-4.49-53.79-6.27-104.4 2.51-151.2 30.73-9.37 5.65-20.36 6.65-31.06 7.34-16.71 1.07-33.38.81-49.73-3.6a61.4 61.4 0 0 1-15.68-7.15c-23.63-14.22-49.34-22.76-76.56-26.76-30.1-4.42-60.16-2.9-90.17 1.21a7.25 7.25 0 0 0-1.42.54c-7.58 0-14.79 2.81-22.34 3.1-13.67 3.45-27.33 6.94-41 10.34-4.46 1.1-9 1.93-13.45 3-3.27.79-4.57.3-4.73-3.72a100.58 100.58 0 0 1 8.09-42.81c11-26.56 14.41-54.35 15.76-82.74 1-20.21 1.4-40.54 5.73-60.45 6.49-29.85 22.91-50 54.41-55.25 5.54-.93 11-2.16 16.54-3.24.14 0 .31.1.88.29-2.64 5.85-6.24 11-9.79 16.3-1.14 1.68-3.73 3.26-1.91 5.72 1.66 2.24 3.87.47 5.63-.11 29.84-9.85 60.52-15.66 91.69-19.08 1.63-.17 3.28-.18 6.52-.35-10 6.22-17.22 13.29-22.44 22.2-4.64 7.93-8.91 16-10.44 25.26-.22 1.33-.75 2.79.6 3.77s2.51.31 3.71-.54c19.92-14 42.66-20.56 66.19-25.16 17.48-3.42 35.2-3.9 52.89-4.71 51.69-2.36 102.67-9.88 153.34-20.11 22.84-4.62 45.59-9.75 68.64-13.34 7.79-1.21 14.6-.31 21.26 4.28 27.32 18.79 43.6 44.72 48.69 77.14 3.69 23.54 4.47 47.46 5.73 71.26A188.28 188.28 0 0 0 835.83 442c5.64 14.91 9.74 30.13 8 46.32-.16 1.55.86 4.35-2.6 3.45ZM217.62 730.11c-9.84-13.45-20-26.68-29.23-40.55-11-16.6-17.08-35.31-21.35-54.71-5-22.51-8.64-45.09-6.95-68.24.81-11.11 3-21.9 8.54-31.73 7.92-14.12 23.54-18.48 37.67-10.72 5.65 3.1 9.36 7.17 10.08 14.13 1.17 11.32 3.18 22.55 4.85 33.81 1 8.6 3.82 17 2.07 25.85.13 3.21.5 6.43.37 9.63-1.14 28.74 1.83 57.25 4.64 85.77.25 2.51.18 5.06.26 7.6 1.1 2 1.05 4.12 1 6.27 1.28 11.46 2.56 22.91 3.88 34.64-7.19-1.8-11.88-6.35-15.83-11.75ZM843.4 680.4c-2.92 29.82-6.79 59.51-10.65 89.22-6 46.57-27.91 85-58.53 119-36.2 40.1-74 78.75-115.23 113.8-12.32 10.46-24.62 21-38.64 29.27a91.51 91.51 0 0 1-39.94 12.78c-26.43 2.09-52.81 2.12-79.12-1-17.47-2-32.16-10.76-45.83-21.11a682.09 682.09 0 0 1-64.07-55.55c-26.86-26.16-53.62-52.47-78.23-80.77-20.52-23.59-38.18-49.29-48.07-79.39-4.24-12.92-6.27-26.46-8.48-39.87-7-42.38-11-85.11-13.5-127.94-1.2-20.35-.2-40.84-.2-61.5 3.3.45 2.68 3 3.1 4.68 7 27.68 18.88 52.83 39.12 73.42 19 19.37 42.5 29.6 69.33 32.31s53.53.66 79.07-8.67c51.79-18.93 81.11-65.72 76-120.77-.39-4.26.66-7.28 3.82-9.81a22.25 22.25 0 0 1 4.09-3c16.51-7.83 33.44-8.83 50.36-1.82 6.73 2.78 11.23 7.57 9.92 16.26-1.17 7.74.31 15.63.83 23.45 2.46 9.44 4 19.15 8.08 28.13 1.32 2.91 2.69 5.8 4 8.71 18.05 35.87 47 57.55 86.23 65.29 26.08 5.15 52.24 4.84 78-2.33 33.23-9.26 56.27-30.62 71.3-61.21a237.82 237.82 0 0 0 12.07-29.73c.51-1.52.55-3.28 2.22-4.62v12.8c0 2.15.07 4.65 2.16 5.31 3.84 1.22 3.33 4.09 3.55 6.88 1.84 22.7-.56 45.24-2.76 67.78Zm-2.87-134c-3.82 11.38-6.15 23.25-9.34 34.85-5.77 21-14 41-27.32 58.3-14.56 19-34.33 30.51-57.64 35.74-17.72 4-35.65 4.07-53.68 2.4a129.42 129.42 0 0 1-39.78-9.95c-14.69-6.32-27-15.82-37.4-27.65-12.47-14.15-20.57-30.69-24.91-49a102.46 102.46 0 0 1-2.63-32.85c1-11.29-5.85-17.35-13.9-22.39-10.84-6.79-23.25-7.32-35.55-6.32a69 69 0 0 0-20.23 4.63A40.41 40.41 0 0 0 503 545c-2.32 2.58-3.2 5.76-3.38 9.37-.43 8.45.86 16.81.31 25.32-1.49 23.19-10.37 42.9-25.48 60.24-19.73 22.64-45.53 33.52-74.42 37.23-22.8 2.93-45.86 3.2-68.13-4-20.3-6.58-36.84-18.78-49.66-35.85-17-22.67-26.14-48.44-30.26-76.3-1.29-8.71-1.33-17.79-7.67-25.38-4.94-5.91-11-9.59-17.81-12.26-3.11-1.23-4.3-2.68-4.1-5.91.24-3.91.08-7.84.09-11.75-.24-2.24-.15-4 3-4 23.47.18 45.52-7.44 68-12.57 31.66-7.21 63.68-11.31 96.15-9.74 36.06 1.74 70.13 10.66 100.94 30.35 9.21 5.89 20 7.65 30.65 8.88 20.59 2.39 41.1 2 61.26-3.65a52.77 52.77 0 0 0 13-5.84c22.87-13.75 47.69-22.36 73.9-26.87 39.46-6.8 78.32-1.19 116.95 6.68 16.47 3.36 32.77 7.62 49.14 11.53a95.17 95.17 0 0 0 25.85 2.2c2.28-.09 4.2 0 3.71 3.11 0 4.26-.1 8.53 0 12.78.06 2.17-.59 3.77-2.75 4.26-12.71 2.87-18.15 12.77-21.76 23.55Zm67.41 130.19a96.23 96.23 0 0 1-10.37 17.5c-8.86 12-17.58 24.22-26.43 36.28-3.64 5-7.82 9.34-14.82 11 1.25-11.65 2.47-22.9 3.68-34.15q.42-3.59.83-7.17 1.95-20.79 3.89-41.57a254.18 254.18 0 0 0 .63-42.74 91.42 91.42 0 0 1-.11-16.79 154 154 0 0 1-.09-19.92c-.06-10.89-.34-21.78-.1-32.65.12-5.38 4.07-9.24 7.19-13.16 15.88-20 40.86-16.52 50.75 7A81 81 0 0 1 929.2 571c.33 36.66-6.14 72-21.26 105.57Z"/><path class="cls-3" d="M846.17 612.6c1.82 22.72-.57 45.26-2.77 67.8-2.92 29.82-6.79 59.51-10.65 89.22-6 46.57-27.91 85-58.53 119-36.2 40.1-74 78.75-115.23 113.8-12.32 10.46-24.62 21-38.64 29.27a91.51 91.51 0 0 1-39.94 12.78c-26.43 2.09-52.81 2.12-79.12-1-17.47-2-32.16-10.76-45.83-21.11a682.09 682.09 0 0 1-64.07-55.55c-26.86-26.16-53.62-52.47-78.23-80.77-20.52-23.59-38.18-49.29-48.07-79.39-4.24-12.92-6.27-26.46-8.48-39.87-7-42.38-11-85.11-13.5-127.94-1.2-20.35-.2-40.84-.2-61.5 3.3.45 2.68 3 3.1 4.68 7 27.68 18.88 52.83 39.12 73.42 19 19.37 42.5 29.6 69.33 32.31s53.53.66 79.07-8.67c51.79-18.93 81.11-65.72 76-120.77-.39-4.26.66-7.28 3.82-9.81a22.25 22.25 0 0 1 4.09-3c16.51-7.83 33.44-8.83 50.36-1.82 6.73 2.78 11.23 7.57 9.92 16.26-1.17 7.74.31 15.63.83 23.45-.69 19.41 1.35 38.66 3.61 57.89a68.56 68.56 0 0 0 7.09 24.29c.9 1.69 1.85 4.44 4.17 3.73 1.94-.6 1.3-3.28 1.1-5.07-1.1-9.6-2.67-19.16-3.36-28.79-.36-5-3-10.08-.5-15.21 18.05 35.87 47 57.55 86.23 65.29 26.08 5.15 52.24 4.84 78-2.33 33.23-9.26 56.27-30.62 71.3-61.21a237.82 237.82 0 0 0 12.07-29.73c.51-1.52 6.89-21.65 8.55-23m-322.28 194-1.19-1-1.05-.93c-8.49-9.17-18.56-11.14-30.13-6.73a64.7 64.7 0 0 1-7.38 1.84c-4.68 1.16-7.88-.48-9.86-4.89-2.79-6.21-2.28-12.55-1.23-19 .89-5.56 4.17-10.4 4.65-16.06.69 0 .78-.45.69-1 0-.14-.18-.26-.28-.39-.19.41-.37.82-.55 1.23-8.44 9.91-15 20.25-11.27 34.35 2.94 11.1 7.93 15.58 19.51 15.77 7.41 3.72 15.5 5.55 23.28 8.24 6.19 2.14 12.08 5.24 18.71 6 10.23 7.28 20.51 7.54 30.83.18a19 19 0 0 0 3.48-.51q16.74-5.68 33.44-11.5c1.71-.59 3.68-.7 4.82-2.44 7.4.66 13.42-1.62 17.26-8.31 7.1-12.38 3.24-32.82-8.54-42.7 1.11 3.88 2.07 7.09 2.94 10.32 1.64 6.07 3.17 12.11 2 18.54-2.32 12.6-4.54 14.65-16.6 10.66-12.9-4.26-23.95-3.46-33.25 7.19a43.63 43.63 0 0 1-23.23 5.3c-6.01-.29-11.44-2.52-17.05-4.2Zm-115.28 54c-3.82.79-7.7 1.38-11.45 2.42-4 1.11-7.5 3.16-6.81 8.1.72 5.17 4.59 5.77 8.86 5.2s6.75 1 8.85 4.95a193.25 193.25 0 0 0 36.3 48.45c46.76 45 119.48 53.89 173.1 21.11 25.94-15.87 44.69-38.56 59.9-64.41 3.2-5.43 5.5-10.36 13.65-8.27 4.81 1.23 8-4.62 5.63-9-3.48-6.42-19.27-9.86-25.11-5.45-3 2.25-5.76 4.56-9.66 5.37-15.66 3.26-31.36 6.19-47.22 8.42a510.51 510.51 0 0 1-192.72-9.43c-3-.72-5.86-1.26-7.53-4.42-1.13-2.06-3.29-2.93-5.79-3.04ZM543.49 966c12.33-.94 25-2 37.13-6.15a31.83 31.83 0 0 0 6.38-3.15 3.91 3.91 0 0 0 1.69-4.91c-.84-2.25-2.91-1.42-4.4-1a31.74 31.74 0 0 1-6.57.64 630 630 0 0 1-69.26 0 33.84 33.84 0 0 1-6.56-.7c-1.75-.46-4-1-4.9 1.32s.81 3.62 2.31 4.62a28.88 28.88 0 0 0 6.34 3.16c12.09 4.32 24.77 5.25 37.84 6.17ZM301 477c-13.67 3.45-27.33 6.94-41 10.34-4.46 1.1-9 1.93-13.45 3-3.27.79-4.57.3-4.73-3.72a100.58 100.58 0 0 1 8.09-42.81c11-26.56 14.41-54.35 15.76-82.74 1-20.21 1.4-40.54 5.73-60.45 6.49-29.85 22.91-50 54.41-55.25 5.54-.93 11-2.16 16.54-3.24.14 0 .31.1.88.29-2.64 5.85-6.24 11-9.79 16.3-1.14 1.68-3.73 3.26-1.91 5.72 1.66 2.24 3.87.47 5.63-.11 29.84-9.85 60.52-15.66 91.69-19.08 1.63-.17 3.28-.18 6.52-.35-10 6.22-17.22 13.29-22.44 22.2-4.64 7.93-8.91 16-10.44 25.26-.22 1.33-.75 2.79.6 3.77s2.51.31 3.71-.54c19.92-14 42.66-20.56 66.19-25.16 17.48-3.42 35.2-3.9 52.89-4.71 51.69-2.36 102.67-9.88 153.34-20.11 22.84-4.62 45.59-9.75 68.64-13.34 7.79-1.21 14.6-.31 21.26 4.28 27.32 18.79 43.6 44.72 48.69 77.14 3.69 23.54 4.47 47.46 5.73 71.26A188.28 188.28 0 0 0 835.83 442c5.64 14.91 9.74 30.13 8 46.32-.16 1.54.86 4.34-2.6 3.44-16.94-4.37-34.18-7.54-50.94-12.62-15.82-18.7-34.17-33.55-58.64-39.51-22.68-5.52-45.54-5.94-68.52-2.91-21.12 2.77-41.19 8.86-59.66 19.77-6.48 3.83-9.1 9.35-8.58 16.64.47 6.61 3.49 8.5 9.45 5.75s11.58-5.75 17.53-8.27c40.33-17.08 81.46-21.18 123.48-6.72 8.89 3.06 18 6 25.44 12.16-10.55-1.53-21-3.26-31.65-4.49-53.79-6.27-104.4 2.51-151.2 30.73-9.37 5.65-20.36 6.65-31.06 7.34-16.71 1.07-33.38.81-49.73-3.6a61.4 61.4 0 0 1-15.68-7.15c-23.63-14.22-49.34-22.76-76.56-26.76-30.1-4.42-60.16-2.9-90.17 1.21a7.25 7.25 0 0 0-1.42.54c1.59-3 4.85-3.55 7.54-4.73 44.14-19.38 88.33-17.47 132.43.1 7.41 2.95 14.48 6.72 21.76 10 5.43 2.44 8 1 8.84-4.81 1-7.41-1.18-13.46-7.88-17.37-3.23-1.89-6.47-3.79-9.84-5.38-32.51-15.33-66.74-19.14-102.11-15C344.2 440.11 320 453.8 301 477Z"/><path class="cls-4" d="M865 505.8c0 4.26-.1 8.53 0 12.78.06 2.17-.59 3.77-2.75 4.26-12.66 2.86-18.1 12.76-21.71 23.54-3.82 11.38-6.15 23.25-9.34 34.85-5.77 21-14 41-27.32 58.3-14.56 19-34.33 30.51-57.64 35.74-17.72 4-35.65 4.07-53.68 2.4a129.42 129.42 0 0 1-39.78-9.95c-14.69-6.32-27-15.82-37.4-27.65-12.47-14.15-20.57-30.69-24.91-49a102.46 102.46 0 0 1-2.63-32.85c1-11.29-5.85-17.35-13.9-22.39-10.84-6.79-23.25-7.32-35.55-6.32a69 69 0 0 0-20.23 4.63A40.41 40.41 0 0 0 503 545c-2.32 2.58-3.2 5.76-3.38 9.37-.43 8.45.86 16.81.31 25.32-1.49 23.19-10.37 42.9-25.48 60.24-19.73 22.64-45.53 33.52-74.42 37.23-22.8 2.93-45.86 3.2-68.13-4-20.3-6.58-36.84-18.78-49.66-35.85-17-22.67-26.14-48.44-30.26-76.3-1.29-8.71-1.33-17.79-7.67-25.38-4.94-5.91-11-9.59-17.81-12.26-3.11-1.23-4.3-2.68-4.1-5.91.24-3.91.08-7.84.09-11.75a122 122 0 0 0 16.32-.55c18.08-2.34 35.52-7.65 53.32-11.29 37.92-7.77 75.94-13.65 114.87-8.74 27.17 3.42 52.89 10.93 76.51 25.06 4.2 2.51 8.11 5.43 13 6.94 19.53 6.08 39.33 8.84 59.83 7.2 17.44-1.4 33.79-5.58 48.54-15.36a90.51 90.51 0 0 1 13.52-7.17c41.74-18.3 85.28-21.71 129.93-15.29 27.28 3.92 54 10.51 80.84 16.63 11.83 2.7 23.64 4.86 35.83 2.66ZM716.42 669.31a123 123 0 0 0 18.68-1c19-2.74 36.13-9.63 50-23.1 26-25.29 37.52-56.85 37.8-92.57.17-21.27-9.31-37.2-28.75-47.15-20.37-10.43-42.34-12.8-64.56-14-10.66-.56-21.38.1-32.09.69-16.8.91-33.42 2.76-49.75 6.68-11.77 2.82-23.2 6.76-32.67 14.77-12.58 10.63-15.88 25.37-17 40.64-1.28 17.72 3 34.74 9.17 51.19 8.42 22.29 22.69 39.73 44.47 50.22 19.87 9.65 40.94 14.16 64.7 13.63ZM376.27 491.36c-11.56-.08-23 1.06-34.54 2-15.67 1.31-31 4.22-45.38 10.49-13.46 5.85-24.88 13.83-28.15 29.76a120.54 120.54 0 0 0-1.85 38.87c3.17 26.76 14.72 49.68 32 69.68 16.54 19.13 39 26.48 63.48 28.06a156.05 156.05 0 0 0 54.37-6.1c22.37-6.58 41.3-18.37 54.52-38 16.84-25 22-52.67 17.5-82.18-1.51-9.85-5.32-19.08-13.39-25.7a98.2 98.2 0 0 0-29.46-16.87c-22.37-7.95-45.67-9.32-69.1-10.01Z"/><path class="cls-5" d="M756.53 114.09c-4.93-1.17-9.74-2.76-14.89-3.08-4.17-.25-5.23 1.64-4.5 5.13 2.24 10.76 6.05 20.79 13.32 29.35 8.39 9.9 17.45 19 28.36 26.15 2.16 1.4 2.4 2.55.39 4.2-6.17 5.09-6.28 12.52-7.21 19.51-.49 3.7 3.31 3.11 5.17 3.38 5.77.83 10.61 3.47 15.34 6.53a11.29 11.29 0 0 1 3.93 3.93c-1.06 1.5-2.29.73-3.61.41a50.25 50.25 0 0 0-19.5-.94c-1.28.2-3.22.3-3.4 2.4-.2 2.32 1.65 2.09 3.05 2.46a13.58 13.58 0 0 1 1.86.78c5 4.57 11.11 7.59 16.09 12.28 11.37 10.71 17.48 24 20.76 38.92-5.1-2.42-6.64-7.85-9.78-11.87a107.42 107.42 0 0 0-37.77-30.93c-3.29-1.62-6.69-1.48-10-1.06-29.84 3.81-59 11.3-88.56 16.72-1.84.34-3.6 1.16-5.23-.44 6.42-2.53 12.82-5.14 19.28-7.59 19.16-7.26 38.61-13.57 59.11-15.82a105.71 105.71 0 0 1 10.69-.14 7.13 7.13 0 0 1 1.47.33c2.37 1.07 4.3 5.93 6.91 2.82 2.37-2.84-1.79-5.47-3.56-8a4.08 4.08 0 0 0-.36-.36c-19-19.26-47-21.11-70.34-13-2.88 1-3.14 2.7-1.67 5.05-9.71 3.44-19.72 5.72-29.74 8 8.5-10.95 15.73-15.6 32.85-21.07-21.42-3.29-42.59-.09-64.24 0 3.86-2.49 8-3.36 11.94-4.44a166.34 166.34 0 0 1 45.66-6.29c17.23.17 34.57-.88 51.32 4.29 7.09 2.18 13.87 5.4 20.79 8.15 3.14 1.88 2.72 5.71 4.56 8.31 1.1 1.55 1.33 4.58 4 3.64s1.36-3.3.86-5.22c-5.26-20.46-17.26-36.19-34-48.68-2.09-1.57-7.58-2.27-2.65-6.85.33-.31-.34-1.89-.78-2.77-8-16.16-20.16-28.31-35.57-37.4-2.5-1.47-3.82-.63-4.18 2.12-3.28-1.05-5.7-3.4-9.3-5.83 8.58-1.13 15.86.46 23.15 2.33 6 1.53 11.35 4.45 17 6.67 5.14 4.69 7.74 11 10.88 17 1 1.79 1.35 4.49 3.85 3.69s1.73-3.52 1.3-5.41c-1.35-5.93-2.92-11.81-4.48-17.7-1-3.86-.42-5.27 4.14-4.06 9 2.38 17 6.63 24.92 11.3 1.38.73 2.31 1.56 2.37 3.1Z"/><path class="cls-6" d="M865.15 579.06c-.06-10.89-.34-21.78-.1-32.65.12-5.38 4.07-9.24 7.19-13.16 15.88-20 40.86-16.52 50.75 7A81 81 0 0 1 929.2 571c.33 36.64-6.14 72-21.26 105.55a96.23 96.23 0 0 1-10.37 17.5c-8.86 12-17.58 24.22-26.43 36.28-3.64 5-7.82 9.34-14.82 11 1.25-11.65 2.47-22.9 3.68-34.15 13.48-5.29 21.07-16 26.5-28.72v.05l1.39-2.14c2.67-5.27 5.54-10.45 8-15.84C908.13 633.32 915.2 605 912 574.79c-1-9.18-3.46-18-11.36-24.08 2.51-2 5.06-3.93 7.53-6 1-.78 2.94-1 2.43-2.76a5.09 5.09 0 0 0-3.12-3.19c-1.87-.76-3.63-.26-5.42.47a38.51 38.51 0 0 0-12.16 8.25 130.08 130.08 0 0 0-24.75 31.58ZM229.54 707.22c1.28 11.46 2.56 22.91 3.88 34.64-7.16-1.8-11.85-6.35-15.8-11.75-9.84-13.45-20-26.68-29.23-40.55-11-16.6-17.08-35.31-21.35-54.71-5-22.51-8.64-45.09-6.95-68.24.81-11.11 3-21.9 8.54-31.73 7.92-14.12 23.54-18.48 37.67-10.72 5.65 3.1 9.36 7.17 10.08 14.13 1.17 11.32 3.18 22.55 4.85 33.81-2.52.15-2.76-2.22-3.8-3.57-7.91-10.24-15.65-20.64-26.93-27.57-2.29-1.41-4.72-2.81-7.62-2.48a4.88 4.88 0 0 0-4.27 3.2c-.72 2.05 1.42 2.37 2.52 3.24 2.14 1.68 4.35 3.25 6.53 4.88-4.45 6.24-9 12.53-10.1 20.34a141.53 141.53 0 0 0 1.44 47.08c3.93 20.67 11.64 39.94 21.92 58.22.16.81.19 1.68 1.08 2.12l-.06-.06c.09.62.05 1.37 1.06 1.09l-.05-.06c4.85 13.29 12.72 23.77 26.59 28.69Z"/><path class="cls-7" d="M201 675.44c-10.28-18.28-18-37.55-21.92-58.22a141.53 141.53 0 0 1-1.47-47.08c1.14-7.81 5.65-14.1 10.1-20.34 6.44 4.86 11.46 11 16.26 17.44 1.38 1.85 1.4 3.42.21 5.55-9 16.07-14 33-11.41 51.72 1.06 7.6 3.2 14.47 8.88 20-7.09-23-3.77-44.1 9.43-64.31 5.87 5.46 8 12.33 12.27 17.77.13 3.21.5 6.43.37 9.63-1.14 28.74 1.83 57.25 4.64 85.77.25 2.51.18 5.06.26 7.6-6.24-1.88-11-5.76-15.36-10.53-3.52-3.88-6.09-8.56-10.23-11.89l.05.06c0-.68-.31-1.12-1.06-1.09l.06.06c-.08-.88-.08-1.76-1.08-2.14Zm1.82-29.19-.29-.2v.37ZM900.59 550.71c7.9 6.09 10.37 14.9 11.36 24.08 3.25 30.18-3.82 58.53-16.14 85.81-2.43 5.39-5.3 10.57-8 15.84-1.25.21-1.57 1-1.39 2.14v-.05c-1.82-.24-2.13 1.43-2.94 2.39-3.54 4.13-6.82 8.5-10.57 12.43-3.27 3.43-7 6.48-12.16 6.73q1.95-20.79 3.89-41.57a254.18 254.18 0 0 0 .63-42.74 92.31 92.31 0 0 1-.12-16.79c2.64-4.35 5.17-8.76 7.95-13 4-6.11 4.69-6.22 8.45 0 6.6 10.9 8.59 23.1 9.14 35.62.36 8.21-1.64 16-4 23.86a31.66 31.66 0 0 0 8.87-16.78c3.6-20-1-38.47-10.75-55.91-1-1.82-1.67-3.23-.26-5 4.96-6.13 9.37-12.65 16.04-17.06Z"/><path class="cls-4" d="M770.79 476.06c-7.46-6.17-16.55-9.1-25.44-12.16-42-14.46-83.15-10.36-123.48 6.72-6 2.52-11.66 5.57-17.53 8.27s-9 .86-9.45-5.75c-.52-7.29 2.1-12.81 8.58-16.64 18.47-10.91 38.54-17 59.66-19.77 23-3 45.84-2.61 68.52 2.91 24.47 6 42.82 20.81 58.64 39.51ZM301 477c19-23.18 43.22-36.87 73.08-40.33 35.37-4.1 69.6-.29 102.11 15 3.37 1.59 6.61 3.49 9.84 5.38 6.7 3.91 8.92 10 7.88 17.37-.82 5.83-3.41 7.25-8.84 4.81-7.28-3.28-14.35-7.05-21.76-10-44.1-17.57-88.29-19.48-132.43-.1-2.69 1.18-5.95 1.69-7.54 4.73-7.6.05-14.81 2.83-22.34 3.14Z"/><path class="cls-8" d="M652.36 59c-20.39-.8-40.77-2.35-61.18-1.91-29.19.63-58.41 1.45-87.08 8a11.5 11.5 0 0 1-2.48-.21c18-10 36.91-13.29 56.21-16.11h-5.37c-1.87 0-3.75 0-5.62.08-38.1 2.08-75.57 7.81-112.13 19-18.34 5.55-36.71 11.03-55.87 13.38-1.68.2-3.4.15-5.1.22a424.36 424.36 0 0 1 54.83-25.72c27.79-10.49 56.68-14.88 86.1-17.53 45.22-4.07 88.82 2.52 131.34 17.74 2.19.78 4.64 1.16 6.35 3.06ZM865 505.8c-12.18 2.15-24 0-35.84-2.66-26.82-6.12-53.56-12.71-80.84-16.63-44.65-6.42-88.19-3-129.93 15.29a90.51 90.51 0 0 0-13.53 7.2c-14.75 9.78-31.1 14-48.54 15.36-20.5 1.64-40.3-1.12-59.83-7.2-4.86-1.51-8.77-4.43-13-6.94-23.62-14.13-49.34-21.64-76.51-25.06-38.93-4.91-76.95 1-114.87 8.74-17.8 3.64-35.24 8.95-53.32 11.29a122 122 0 0 1-16.32.55c-.24-2.24-.15-4 3-4 23.47.18 45.52-7.44 68-12.57 31.66-7.21 63.68-11.31 96.15-9.74 36.06 1.74 70.13 10.66 100.94 30.35 9.21 5.89 20 7.65 30.65 8.88 20.59 2.39 41.1 2 61.26-3.65a52.77 52.77 0 0 0 13-5.84c22.87-13.75 47.69-22.36 73.9-26.87 39.46-6.8 78.32-1.19 116.95 6.68 16.47 3.36 32.77 7.62 49.14 11.53a95.17 95.17 0 0 0 25.85 2.2c2.25-.11 4.17-.01 3.69 3.09Z"/><path class="cls-5" d="M356.51 247.1c17.71-8.26 36.28-14 55.27-18.35 12.18-2.81 24.31-5.87 36.7-7.72 15.95-2.38 31.92-3.34 47.88-.37 2.39.45 6.13.72 6.48 3.15.39 2.62-3.53 2.23-5.43 3.34-5.26 3.07-10.74 5.74-16.13 8.57.25-3.25-1.6-3.94-4.43-4-8.48-.25-16.9.94-25.35 1.32-10.57.47-21 2.68-31.6 3.75a419.36 419.36 0 0 0-59.72 10.62c-1.31.3-2.55 1.16-3.67-.31Z"/><path class="cls-9" d="M900.59 550.71c-6.67 4.41-11.08 10.93-16 17-1.41 1.77-.76 3.18.26 5 9.74 17.44 14.35 35.87 10.75 55.91a31.66 31.66 0 0 1-8.87 16.78c2.35-7.84 4.35-15.65 4-23.86-.55-12.52-2.54-24.72-9.14-35.62-3.76-6.21-4.47-6.1-8.45 0-2.78 4.26-5.31 8.67-7.95 13a155.77 155.77 0 0 1-.08-19.92 130.08 130.08 0 0 1 24.7-31.55 38.51 38.51 0 0 1 12.19-8.19c1.79-.73 3.55-1.23 5.42-.47a5.09 5.09 0 0 1 3.12 3.19c.51 1.79-1.47 2-2.43 2.76-2.46 2.04-5.01 3.99-7.52 5.97ZM223.3 598c-4.26-5.44-6.4-12.31-12.27-17.77-13.2 20.21-16.52 41.35-9.43 64.31-5.68-5.51-7.82-12.38-8.88-20-2.59-18.71 2.43-35.65 11.41-51.72 1.19-2.13 1.17-3.7-.21-5.55-4.8-6.4-9.82-12.58-16.26-17.44-2.18-1.63-4.39-3.2-6.53-4.88-1.1-.87-3.24-1.19-2.52-3.24a4.88 4.88 0 0 1 4.27-3.2c2.9-.33 5.33 1.07 7.62 2.48 11.28 6.93 19 17.33 26.93 27.57 1 1.35 1.28 3.72 3.8 3.57.96 8.57 3.82 17.01 2.07 25.87Z"/><path class="cls-5" d="M259.37 303.32c1-20.91 9.4-38.37 25.12-52.16a132.34 132.34 0 0 1 50.8-28.16 215.11 215.11 0 0 1 42.39-7.74 152.19 152.19 0 0 1 21.79-.39c-12.53 3.8-25 7.71-34.78 16.92-.17-2.4-1.73-3.46-3.82-3-20.24 4.42-41.23 5.76-60.38 14.63-14.42 6.68-23.26 18.75-30.84 32-4.44 7.78-6.52 16.3-8.23 24.95-.28 1.38-.2 2.76-2.05 2.95ZM478.3 236.89c-6 5.21-13.19 8.91-18.54 14.89-1 1.09-3.13 2-2.41 3.52 1 2 2.9.36 4.45.15 14.39-1.92 28.79-4 43 .83-4.36 2.45-9.31 1.25-13.89 1.7a230.54 230.54 0 0 0-70.52 18.35c-.23.1-.61-.15-1.52-.39 13.19-23.48 35.85-31.94 59.43-39.05Z"/><path class="cls-9" d="M590.68 620.21c-2.51 5.13.14 10.18.5 15.21.69 9.63 2.26 19.19 3.36 28.79.2 1.79.84 4.47-1.1 5.07-2.32.71-3.27-2-4.17-3.73a68.56 68.56 0 0 1-7.09-24.29c-2.26-19.23-4.3-38.48-3.61-57.89 2.46 9.44 4 19.15 8.08 28.13 1.35 2.91 2.69 5.8 4.03 8.71ZM203 678.53c4.14 3.33 6.71 8 10.23 11.89 4.33 4.77 9.12 8.65 15.36 10.53 1.1 2 1.05 4.12 1 6.27-13.92-4.92-21.79-15.4-26.59-28.69ZM860.83 700.08c5.16-.25 8.89-3.3 12.16-6.73 3.75-3.93 7-8.3 10.57-12.43.81-1 1.12-2.63 2.94-2.39-5.43 12.72-13 23.43-26.5 28.72q.42-3.58.83-7.17Z"/><path class="cls-5" d="M854.83 480.26c-.28.37-.51.67-.75 1a6.58 6.58 0 0 1-.31-1.35c0-.27.25-.56.38-.84Z"/><path class="cls-10" d="M409.25 817.25c2.5.11 4.66 1 5.75 3 1.67 3.16 4.55 3.7 7.53 4.42a510.51 510.51 0 0 0 192.72 9.43c15.86-2.23 31.56-5.16 47.22-8.42 3.9-.81 6.69-3.12 9.66-5.37 5.84-4.41 21.63-1 25.11 5.45 2.37 4.38-.82 10.23-5.63 9-8.15-2.09-10.45 2.84-13.65 8.27-15.21 25.85-34 48.54-59.9 64.41-53.62 32.78-126.34 23.84-173.1-21.11a193.25 193.25 0 0 1-36.26-48.45c-2.1-3.9-4.6-5.52-8.85-4.95s-8.14 0-8.86-5.2c-.69-4.94 2.82-7 6.81-8.1 3.75-1 7.63-1.63 11.45-2.38Zm236.55 48.14 1.26-.89c3.31-3.25 6.41-6.67 8.36-11 4.36-4.38 7.1-9.83 10.58-15.19a9.59 9.59 0 0 0-2-.08 560.32 560.32 0 0 1-109.16 13.61c-28.83.88-57.45-1.35-86-5.27-14.66-2-29.06-5.32-43.62-7.81l-1-.37.12 1.11c3.26 5.53 6.37 11.18 11 15.76a34.39 34.39 0 0 0 8.95 11.23c5.26 7.91 12.59 13.72 19.94 19.49 33.38 26.17 71.16 32.74 112.06 24.77 20.76-4 38.36-14.56 54-28.32 5.71-5 12.35-9.63 15.22-17.32Z"/><path class="cls-9" d="M486.44 766.43c-11.58-.19-16.57-4.67-19.51-15.77-3.72-14.1 2.83-24.44 11.27-34.35l.15.14c-.49 5.66-3.77 10.5-4.66 16.06-1.05 6.45-1.56 12.79 1.23 19 2 4.41 5.18 6 9.86 4.89a64.7 64.7 0 0 0 7.38-1.84c11.57-4.41 21.64-2.44 30.13 6.73l1.05.93 1.19 1c3.1 4.4 6.26 8.74 10.77 11.86 5.36 3.71 12 4 17 .18a54.36 54.36 0 0 0 12.46-13.12c9.3-10.65 20.35-11.45 33.25-7.19 12.06 4 14.28 1.94 16.6-10.66 1.18-6.43-.35-12.47-2-18.54-.87-3.23-1.83-6.44-2.94-10.32 11.78 9.88 15.64 30.32 8.54 42.7-3.84 6.69-9.86 9-17.26 8.31-3.07-1.32-6.11-2.74-9.23-3.94-6.32-2.43-12.28-2-17.48 2.73a134 134 0 0 0-15 15.66c-10.32 7.36-20.6 7.1-30.83-.18-5-6-10-11.92-16.26-16.67-4.56-3.44-9.43-3.6-14.46-2-3.83 1.13-7.5 2.88-11.25 4.39Z"/><path class="cls-7" d="M543.49 966c-13.07-.9-25.75-1.83-37.86-6.16a28.88 28.88 0 0 1-6.34-3.16c-1.5-1-3.21-2.45-2.31-4.62s3.15-1.78 4.9-1.32a33.84 33.84 0 0 0 6.56.7 630 630 0 0 0 69.26 0 31.74 31.74 0 0 0 6.57-.64c1.49-.4 3.56-1.23 4.4 1a3.91 3.91 0 0 1-1.67 4.9 31.83 31.83 0 0 1-6.36 3.13C568.49 964 555.82 965 543.49 966ZM559.26 780.88a134 134 0 0 1 15-15.66c5.2-4.76 11.16-5.16 17.48-2.73 3.12 1.2 6.16 2.62 9.23 3.94-1.14 1.74-3.11 1.85-4.82 2.44q-16.71 5.79-33.44 11.5a19 19 0 0 1-3.45.51ZM486.44 766.43c3.75-1.51 7.42-3.26 11.27-4.45 5-1.55 9.9-1.39 14.46 2 6.29 4.75 11.24 10.72 16.26 16.67-6.63-.79-12.52-3.89-18.71-6-7.78-2.65-15.87-4.5-23.28-8.22ZM564.8 762.13a54.36 54.36 0 0 1-12.46 13.12c-5.05 3.86-11.68 3.53-17-.18-4.51-3.12-7.67-7.46-10.77-11.86 5.61 1.68 11 3.91 17 4.22a43.63 43.63 0 0 0 23.23-5.3Z"/><path class="cls-9" d="M478.2 716.31c.18-.41.36-.82.55-1.23.1.13.26.25.28.39.09.53 0 1-.68 1Z"/><path class="cls-7" d="m523.34 762.22-1.05-.93Z"/><path class="cls-8" d="M613.3 119.22c7.22 2.39 14.43 4.74 21.63 7.16 1.87.63 3.94 1 5.08 2.57-49.15-2.11-98.45-6-146.63 10.3.89-.75 1.76-1.55 2.7-2.24a26.46 26.46 0 0 1 3-1.94c24.26-13.2 49.7-22.2 77.82-20.77 8.44.43 16.83 1.78 25.25 2.7l7.05 1.21a1.64 1.64 0 0 0 2.14.81Z"/><path class="cls-2" d="M682.79 103c.36-2.75 1.68-3.59 4.18-2.12 15.41 9.09 27.6 21.24 35.57 37.4.44.88 1.11 2.46.78 2.77-4.93 4.58.56 5.28 2.65 6.85 16.72 12.49 28.72 28.22 34 48.68.5 1.92 1.76 4.32-.86 5.22s-2.94-2.09-4-3.64c-1.84-2.6-1.42-6.43-4.56-8.31-2.44-7.05-7.14-12.74-11.85-18.22a111.82 111.82 0 0 0-47.93-32.52c-8-2.85-16.13-5.11-24.2-7.64-.23-3.16 1.46-4.5 4.36-3.93 9.75 1.9 19.49 3.81 28.91 7.2 6.46 2.31 12.45 5.72 19.13 7.76-3.72-5.23-6.18-11.2-11.44-15-5.27-8.25-12.71-14.36-20.29-20.3a16.85 16.85 0 0 1-4.45-4.2Z"/><path class="cls-5" d="M707.47 127.46c5.26 3.85 7.72 9.82 11.44 15-6.68-2-12.67-5.45-19.13-7.76-9.42-3.39-19.16-5.3-28.91-7.2-2.9-.57-4.59.77-4.36 3.93-16.35-6.2-33.6-9-50.49-13.12a2.36 2.36 0 0 0-2.72.87l-2-.21c-.34-1.25-.75-2.34-2.14-.81l-7.01-1.16c.37-2.27 2.17-1.72 3.6-1.77a300.56 300.56 0 0 1 51.72 2.36c15.95 2.23 32.16 3.94 47.49 9.59a10.33 10.33 0 0 0 2.51.28Z"/><path class="cls-8" d="M304.24 181.56c1.39-6.29 6-10.61 9.93-15.13 16.32-18.74 37.39-28.14 61.87-30.94a160.23 160.23 0 0 1 28.54-.55c4.62.3 9.54 0 14.84 2.53-9.08.29-17.35.25-25.59 1.11-30.39 3.13-58.07 12.49-80.66 33.95-3.06 2.91-5.28 6.66-8.78 9.18Z"/><path class="cls-2" d="M681.89 201.21c-1.47-2.35-1.21-4.05 1.67-5.05 23.31-8.08 51.32-6.23 70.34 13a4.08 4.08 0 0 1 .36.36c1.77 2.5 5.93 5.13 3.56 8-2.61 3.11-4.54-1.75-6.91-2.82a7.13 7.13 0 0 0-1.47-.33c-11-9.12-23.73-13.92-37.82-15.34-10.03-1.03-19.82 1.43-29.73 2.18Z"/><path class="cls-8" d="M630.59 73.91a784.24 784.24 0 0 0-103.29-1.12c34.53-10.27 68.97-10.72 103.29 1.12ZM455.84 132.68c-7.11 7.7-16.31 12-26 15.16-15.22 5-31.38 5.52-46.92 9.12-9.11 2.11-18 4.83-27 7.3-1.25.35-2.42 1.35-4.5.45 6.89-4.59 14.22-7.11 21.47-9.71 12.36-4.44 25.28-6.43 38.21-8.49 15.51-2.47 30.2-7.83 44.59-14ZM232.7 251.57c-.56 14 1 27.53-1.62 41-3.34-4.9-3.39-10.41-4.32-16.07-2.77 9.93-5.55 19.85-8.5 30.4-4.32-20.55 1.98-44.9 14.44-55.33ZM450.51 172.33c6.16-7.58 14.72-12 22.94-16.67a145.94 145.94 0 0 1 65.33-19.16c-7.54 2.35-15.06 4.74-22.6 7.05-21.71 6.63-42.5 15.32-61.68 27.58a6.66 6.66 0 0 1-3.71 1.49ZM497.7 233.8c2.71-6.33 8.76-8.82 14.23-11.46 15-7.23 31-10.79 47.5-12a37.31 37.31 0 0 1 12.48 1.41l-33.57 7.67a200.05 200.05 0 0 0-40.67 14.3ZM247 256.25c-2.36 8.27-4.74 16.52-7.07 24.8a123.53 123.53 0 0 1-4.47 14.15c-1-14.4.27-28.15 11.59-38.9ZM301 186.31c0-.1.08-.26.12-.27a1 1 0 0 1 .36.1c0 .09-.07.27-.12.27a1 1 0 0 1-.36-.1ZM303.33 182.68 303 184l-.53-.33.79-1ZM524.56 73.68c0 .1-.09.28-.13.28a1.14 1.14 0 0 1-.4-.11c0-.1.08-.28.13-.28a1 1 0 0 1 .4.11ZM457.76 131.52a1.88 1.88 0 0 1-1.92 1.16l-.16-.19a2.08 2.08 0 0 1 2.12-.93Z"/><path class="cls-5" d="m652.15 209.23-.21.43c.08-.13.15-.27.23-.41Z"/><path class="cls-8" d="m497.67 233.77-.45.43c0-.1 0-.24.1-.28a1.13 1.13 0 0 1 .38-.12ZM450.79 172.62l-1.13.91-.12-.12 1-1.08Z"/><path class="cls-8" d="m449.66 173.53-.57.45.45-.57ZM304.39 181.71l-1.06 1 .95-1.08ZM457.8 131.56l.45-.48c0 .1 0 .25-.08.29a1.12 1.12 0 0 1-.41.15ZM247.06 256.3a1.45 1.45 0 0 1 .16-.38c.05-.06.19 0 .28-.07l-.49.4Z"/><path class="cls-10" d="M716.42 669.31c-23.76.53-44.83-4-64.71-13.56-21.78-10.49-36.05-27.93-44.47-50.22-6.21-16.45-10.45-33.47-9.17-51.19 1.11-15.27 4.41-30 17-40.64 9.47-8 20.9-12 32.67-14.77 16.33-3.92 32.95-5.77 49.75-6.68 10.71-.59 21.43-1.25 32.09-.69 22.22 1.17 44.19 3.54 64.56 14 19.44 10 28.92 25.88 28.75 47.15-.28 35.72-11.79 67.28-37.8 92.57-13.85 13.47-31 20.36-50 23.1a123 123 0 0 1-18.67.93Zm-64.36-129.88v-.14c-18.24 8.24-32.06 21.22-41.89 38.71-1.46 2.61.26 3.2 1.71 4.24a116.18 116.18 0 0 0 38 18c32.95 9 65.22 8.75 96.42-6.59 12.18-6 23-13.86 31.3-24.82 2.34-3.09 3-6 1-9.8a56.2 56.2 0 0 0-18.4-21.44c-10.64-7.3-22.66-10.64-35.28-12.23-1.84-.27-3.67-.61-5.52-.81-9-1-17.85.1-26.66 1.89-6.88.06-13.38 2-19.86 4.06-7 1.63-13.75 3.85-19.71 8-.56.06-1.25.01-1.11.93ZM609.74 591c7.55 26.45 20.81 46.76 45 58.53 24 11.66 49.46 14.76 75.66 12.35 19.12-1.76 36.53-8.33 50.41-22.15 25.36-25.27 36-56.38 34.79-91.65-.56-15.52-8.39-27.35-22.18-35-12.55-7-26.15-10.43-40.22-12.4-21.73-3-43.53-2.59-65.3-.82-18.51 1.51-36.82 4.18-54.34 11-16.17 6.29-25.2 17.86-27.45 34.91-.55 4.2-1.77 8.41-.55 13.09 11.88-15.75 26-28.24 43.28-36.58 26.3-12.68 54.31-16.55 83.1-13.12 24.9 3 45.08 14.64 59.06 36 6.16 9.41 6 19.09-.75 28a45.16 45.16 0 0 1-6.89 7.52c-37.66 31.57-80.84 40.07-128.2 30-15.91-3.51-30.3-10.99-45.42-19.68ZM376.27 491.36c23.43.69 46.73 2.06 69.13 10.07a98.2 98.2 0 0 1 29.46 16.87c8.07 6.62 11.88 15.85 13.39 25.7 4.52 29.51-.66 57.21-17.5 82.18-13.22 19.59-32.15 31.38-54.52 38a156.05 156.05 0 0 1-54.37 6.1c-24.48-1.58-46.94-8.93-63.48-28.06-17.31-20-28.86-42.92-32-69.68a120.54 120.54 0 0 1 1.85-38.87c3.27-15.93 14.69-23.91 28.15-29.76 14.41-6.27 29.71-9.18 45.38-10.49 11.47-1 22.95-2.14 34.51-2.06Zm6 32.94c-6.23 0-12.51-1.07-18.64 1-2.35.33-4.74.52-7.06 1-19.48 4-35.7 12.67-45.45 31.07-2.52 4.75-2.11 8.38 1.15 12.4A77 77 0 0 0 336 589.61c48.43 25.63 95.38 20.8 141.05-7.48 2.81-1.74 2.48-3.25 1.1-5.7-9.91-17.49-24.59-29.67-42.38-38.45-12.42-6.63-25.48-11.06-39.68-11.6-4.49-1.78-9.23-1.53-13.85-2.08Zm96.61 67.61c-.9 0-1.27-.12-1.52 0-2.26 1.19-4.51 2.38-6.74 3.63-39.76 22.35-81.11 24.35-123.65 9.31-17.71-6.26-33.7-15.43-46.37-29.68-7.88-8.86-9.32-19.37-3.63-28.65a76.37 76.37 0 0 1 37-31.62c19-7.74 38.77-8.36 58.81-6.06 24.78 2.85 47.91 9.95 67.63 26a147.48 147.48 0 0 1 22.28 22.5c-.87-15.35-3.88-28-16.23-37-12.83-9.31-27.18-14.68-42.52-17.63-29.58-5.7-59.34-5.21-89.08-1.68-15.09 1.8-29.83 5.23-43.24 12.9-9.2 5.26-15.17 12.54-17.21 23.33-6.5 34.53 3 65 23 92.82a74.91 74.91 0 0 0 45.82 30.24c26.1 5.84 51.81 3.51 77-4.87 16.87-5.62 31.11-15.25 42-29.45a96.74 96.74 0 0 0 16.62-34.09Z"/><path class="cls-8" d="M814.62 230c8.88 9.74 14.39 21.26 17.84 33.86a25.22 25.22 0 0 1 0 13.27c-3.35-4.83-4-9.76-5.92-14.12-6.76-15.34-16.13-28.61-29.6-38.78-2.68-2-3.31-3.45.65-4.35 6.86 1.46 11.7 6.22 17.03 10.12ZM820.9 203.18c-9-3.87-17.25-9.38-26.43-13a58.28 58.28 0 0 0-9.67-3c-3-.61-3-1.85-1.6-4.21 2.5-4.24 6.54-5.08 10.86-5.37a30.19 30.19 0 0 1 20 5.55c-5.39.15-10.76-1.35-17.38.23 7.18 4.13 13.2 8 18.48 12.87 2.2 2 5 3.56 5.88 6.76Z"/><path class="cls-2" d="M814.62 230c-5.33-3.94-10.17-8.7-17-10.12-5.26-4.57-12-4.28-18.26-5.52a25.17 25.17 0 0 0-4.52-.1 13.58 13.58 0 0 0-1.86-.78c-1.4-.37-3.25-.14-3.05-2.46.18-2.1 2.12-2.2 3.4-2.4a50.25 50.25 0 0 1 19.5.94c1.32.32 2.55 1.09 3.61-.41 6.22 3.35 12.6 6.63 16.85 12.48 1.65 2.31 5.85 4.88 1.33 8.37Z"/><path class="cls-8" d="M791.31 158.1c-6.68-1.69-13-4.68-20.34-5.13 6.25-6.45 17.47-3.25 20.3 5.17ZM823 204.1a2 2 0 0 1-2.12-.92l.17-.2a2 2 0 0 1 1.9 1.17ZM823 204.15l.44.44c-.09 0-.23 0-.27-.1a1.61 1.61 0 0 1-.12-.39ZM791.27 158.14l.44.19-.4-.23Z"/><path class="cls-9" d="M886.45 678.58c-.18-1.12.14-1.93 1.39-2.14ZM201 675.44c1 .38 1 1.26 1.08 2.12-.94-.44-.97-1.31-1.08-2.12Z"/><path class="cls-9" d="M202 677.5c.75 0 1 .41 1.06 1.09-1.06.28-1-.47-1.06-1.09ZM202.77 646.25l-.31.17.02-.37.29.2z"/><path class="cls-11" d="M645.55 865.16c-2.87 7.69-9.51 12.29-15.22 17.32-15.63 13.76-33.23 24.27-54 28.32-40.9 8-78.68 1.4-112.06-24.77-7.35-5.77-14.68-11.58-19.94-19.49a8.42 8.42 0 0 1 2 .12c27.88 8.25 56.53 10.11 85.37 10.37 23.17.21 46.3-.17 69.37-2.92a316.35 316.35 0 0 0 44.48-8.95Z"/><path class="cls-12" d="M435.39 855.31c-4.62-4.58-7.73-10.23-11-15.76l.87-.74c14.56 2.49 29 5.8 43.62 7.81 28.54 3.92 57.16 6.15 86 5.27A560.32 560.32 0 0 0 664 838.28a9.59 9.59 0 0 1 2 .08c-3.48 5.36-6.22 10.81-10.58 15.19-9.46 3.16-18.73 6.9-28.54 9-28.08 6.06-56.55 7.35-85.16 7.36-26.56 0-53-1.12-79.12-6.41-9.34-1.88-18.14-5.5-27.21-8.19Z"/><path d="M435.39 855.31c9.07 2.73 17.87 6.31 27.21 8.2 26.12 5.29 52.56 6.43 79.12 6.41 28.61 0 57.08-1.3 85.16-7.36 9.81-2.11 19.08-5.85 28.54-9-1.95 4.28-5 7.7-8.36 11-.58.06-1.17.12-1.26.89l-.25-.23a316.35 316.35 0 0 1-44.45 9c-23.07 2.75-46.2 3.13-69.37 2.92-28.84-.26-57.49-2.12-85.37-10.37a8.42 8.42 0 0 0-2-.12 34.39 34.39 0 0 1-8.97-11.34Z" style="fill:#949393"/><path class="cls-12" d="m424.4 839.55-.12-1.11 1 .37Z"/><path class="cls-11" d="M645.8 865.39c.09-.77.68-.83 1.26-.89Z"/><path class="cls-1" d="M609.2 118.21c1.39-1.53 1.8-.44 2.14.81a1.64 1.64 0 0 1-2.14-.81Z"/><path class="cls-6" d="M609.74 591c15.12 8.72 29.51 16.2 45.44 19.59 47.36 10.08 90.54 1.58 128.2-30a45.16 45.16 0 0 0 6.89-7.52c6.7-8.89 6.91-18.57.75-28-14-21.33-34.16-33-59.06-36-28.79-3.43-56.8.44-83.1 13.12-17.3 8.34-31.4 20.83-43.28 36.58-1.22-4.68 0-8.89.55-13.09 2.25-17.05 11.28-28.62 27.45-34.91 17.52-6.81 35.83-9.48 54.34-11 21.77-1.77 43.57-2.22 65.3.82 14.07 2 27.67 5.42 40.22 12.4 13.79 7.67 21.62 19.5 22.18 35 1.26 35.27-9.43 66.38-34.79 91.65-13.88 13.82-31.29 20.39-50.41 22.15-26.2 2.41-51.69-.69-75.66-12.35-24.21-11.71-37.47-32.02-45.02-58.44Zm126.16-86.45c-5.13-1.94-9.39-1.66-13.57-2.11a152 152 0 0 0-53.55 3.42c-6.49 1.63-12.71 4.11-17.21 9.81 27.43-6.36 55.12-10.67 84.33-11.12Z"/><path class="cls-12" d="M724.93 525.32c12.62 1.59 24.64 4.93 35.28 12.23a56.2 56.2 0 0 1 18.4 21.45c1.93 3.78 1.3 6.71-1 9.8-8.31 11-19.12 18.83-31.3 24.82-31.2 15.34-63.47 15.62-96.42 6.59a116.18 116.18 0 0 1-38-18c-1.45-1-3.17-1.63-1.71-4.24 9.8-17.46 23.65-30.44 41.92-38.68 1.21 1.53-.11 2.85-.48 4.17a40.8 40.8 0 0 0-.49 21.18c5.6 22.7 28.21 36.93 50.74 31.93 23.15-5.13 38-28 33.2-50.89-1.64-7.68-6.13-13.89-10.14-20.36Z"/><path class="cls-14" d="M724.93 525.32c4 6.47 8.5 12.65 10.13 20.36 4.82 22.87-10 45.76-33.2 50.89-22.53 5-45.14-9.23-50.74-31.93a40.8 40.8 0 0 1 .49-21.18c.37-1.32 1.69-2.64.48-4.17v.14c1.18.64.92-.42 1.12-.95 6-4.17 12.72-6.39 19.71-8-2.07 4.68-.78 9.13.87 13.57l-1.29 5.41c-2.69 11.21 4.38 23 15.26 25.56 11.27 2.61 23.31-4.61 25.67-15.38 2.61-12-4.5-23.74-15.81-26.23-.87-2.85-2.8-4.95-4.84-7 8.81-1.79 17.67-2.87 26.66-1.89 1.82.19 3.65.53 5.49.8Z"/><path class="cls-12" d="M692.75 526.4c2 2 4 4.14 4.84 7 .74 7.05-1.77 12.22-7.14 14.7-6.05 2.8-10.89 1.62-16.69-4.06-1.65-4.44-2.94-8.89-.87-13.57 6.48-2.06 12.98-4.01 19.86-4.07ZM653.18 538.48c-.2.53.06 1.59-1.12.95-.14-.92.55-.87 1.12-.95Z"/><path class="cls-6" d="M478.85 591.91A96.74 96.74 0 0 1 462.26 626c-10.93 14.2-25.17 23.83-42 29.45-25.19 8.38-50.9 10.71-77 4.87a74.91 74.91 0 0 1-45.82-30.24c-20-27.86-29.5-58.29-23-92.82 2-10.79 8-18.07 17.21-23.33 13.41-7.67 28.15-11.1 43.24-12.9 29.74-3.53 59.5-4 89.08 1.68 15.34 2.95 29.69 8.32 42.52 17.63 12.35 9 15.36 21.62 16.23 37a147.48 147.48 0 0 0-22.28-22.5c-19.72-16.05-42.85-23.15-67.63-26-20-2.3-39.8-1.68-58.81 6.06a76.37 76.37 0 0 0-37 31.62c-5.69 9.28-4.25 19.79 3.63 28.65 12.67 14.25 28.66 23.42 46.37 29.68 42.54 15 83.89 13 123.65-9.31 2.23-1.25 4.48-2.44 6.74-3.63.19-.12.61 0 1.46 0Zm-121.47-88.35c27.26 1.3 54 6 80.56 11.43-24.94-16.92-52.89-13.61-80.56-11.43Z"/><path class="cls-12" d="M435.72 538c17.79 8.78 32.47 21 42.38 38.45 1.38 2.45 1.71 4-1.1 5.7-45.67 28.28-92.62 33.11-141 7.48a77 77 0 0 1-23.71-19.89c-3.26-4-3.67-7.65-1.15-12.4 9.75-18.4 26-27.05 45.45-31.07 2.32-.48 4.71-.67 7.06-1-.88 1.42-1.73 2.86-2.64 4.26-5.43 8.33-8.85 17.36-8.17 27.39 1.42 21 16.87 37.35 37.25 39.89 21 2.62 39.57-9.18 46.51-29.33 3.4-10 2.51-19.76-.88-29.48Z"/><path class="cls-14" d="M435.72 538c3.39 9.74 4.26 19.5.83 29.48-6.94 20.13-25.55 31.93-46.55 29.31-20.38-2.54-35.83-18.89-37.25-39.89-.68-10 2.74-19.06 8.17-27.39.91-1.4 1.76-2.84 2.64-4.26 6.13-2 12.41-1 18.64-1-8.06 5.11-9.32 10-5.2 20.05-4.33 10.41-2.89 17.73 5 25.44 6.3 6.15 14.76 7.33 23.07 3.23 7.81-3.86 12.78-13.08 11.62-21.56-1.26-9.18-7.87-16.58-16.18-18.13a23.4 23.4 0 0 0-4.53-7c14.26.64 27.32 5.07 39.74 11.72Z"/><path class="cls-12" d="M377 544.35c-4.12-10.07-2.86-14.94 5.2-20.05 4.62.55 9.36.3 13.8 2.07a23.4 23.4 0 0 1 4.53 7c.41 6.36-1.13 11.78-7.54 14.56-6.09 2.63-11.43 1.26-15.99-3.58Z"/><path class="cls-7" d="M735.9 504.55c-29.21.44-56.86 4.76-84.33 11.12 4.5-5.7 10.72-8.18 17.21-9.81a152 152 0 0 1 53.55-3.42c4.18.45 8.44.17 13.57 2.11Z"/><path class="cls-2" d="M673.76 544c5.8 5.68 10.64 6.86 16.69 4.06 5.37-2.48 7.88-7.65 7.14-14.7 11.31 2.49 18.42 14.28 15.81 26.23-2.36 10.77-14.4 18-25.67 15.38-10.88-2.51-18-14.35-15.26-25.56Z"/><path class="cls-7" d="M357.38 503.56c27.67-2.18 55.59-5.49 80.56 11.43-26.59-5.47-53.3-10.13-80.56-11.43Z"/><path class="cls-2" d="M377 544.35c4.52 4.84 9.86 6.21 16 3.54 6.41-2.78 8-8.2 7.54-14.56 8.31 1.55 14.92 8.95 16.18 18.13 1.16 8.48-3.81 17.7-11.62 21.56-8.31 4.1-16.77 2.92-23.07-3.23-7.88-7.71-9.32-15.03-5.03-25.44Z"/><path class="cls-1" d="M643.1 132.74c3.21 0 3.22-5 0-5s-3.23 5 0 5Z"/></svg>